<svg width="13" height="13" fill="none" xmlns="http://www.w3.org/2000/svg"><path d="M11.936 4.362a.2.2 0 01.014.222c-3.89 6.739-7.103 5.854-8.304 5.16a2.967 2.967 0 01-1.034-.977.2.2 0 01-.007-.203.213.213 0 01.176-.105c1.049 0 3.733-.169 5.992-1.7a.201.201 0 00.055-.28.201.201 0 00-.28-.053c-.17.115-.343.22-.518.32-.067.039-.135.074-.203.11a8.544 8.544 0 01-.615.302l-.097.04C4.315 8.406 1.05 8.247.174 7.74a.2.2 0 01.2-.347c.28.161.957.298 1.843.328-.126-.77.053-1.607.529-2.432 1.287-2.23 3.679-1.471 4.963-1.064 1.73.548 3.055.323 4.016.066a.2.2 0 01.21.071z" fill="#13DF4C"/><path d="M11.936 4.362a.2.2 0 01.014.222c-3.89 6.739-7.103 5.854-8.304 5.16a2.967 2.967 0 01-1.034-.977.2.2 0 01-.007-.203.213.213 0 01.176-.105c1.049 0 3.733-.169 5.992-1.7a.201.201 0 00.055-.28.201.201 0 00-.28-.053c-.17.115-.343.22-.518.32-.067.039-.135.074-.203.11a8.544 8.544 0 01-.615.302l-.097.04C4.315 8.406 1.05 8.247.174 7.74a.2.2 0 01.2-.347c.28.161.957.298 1.843.328-.126-.77.053-1.607.529-2.432 1.287-2.23 3.679-1.471 4.963-1.064 1.73.548 3.055.323 4.016.066a.2.2 0 01.21.071z" fill="url(#paint0_linear)"/><defs><linearGradient id="paint0_linear" x1="7.157" y1="12.339" x2="11.482" y2="3.802" gradientUnits="userSpaceOnUse"><stop stop-color="#DBB878"/><stop offset="1" stop-color="#FFBD81"/></linearGradient></defs></svg>